<?xml version="1.0" encoding="UTF-8"?>
<svg version="1.1" xmlns="http://www.w3.org/2000/svg" width="512" height="512">
<path d="M0 0 C3.15480172 1.20238842 6.21069199 2.53413089 9.27880859 3.94287109 C10.96550659 4.68947998 10.96550659 4.68947998 12.6862793 5.45117188 C16.12526273 6.98524598 19.54684103 8.55334498 22.96630859 10.13037109 C23.97790039 10.58943848 24.98949219 11.04850586 26.03173828 11.52148438 C40.81598197 18.24764929 54.95643878 25.92494381 68.96630859 34.13037109 C69.85511719 34.64776855 70.74392578 35.16516602 71.65966797 35.69824219 C83.10398737 42.37692303 94.19905092 49.40707487 104.96630859 57.13037109 C105.72830566 57.6745166 106.49030273 58.21866211 107.27539062 58.77929688 C117.94891998 66.42977523 128.1424956 74.41844106 137.96630859 83.13037109 C139.34092694 84.31831287 140.71586597 85.5058838 142.09130859 86.69287109 C159.74096017 102.23958546 175.20355522 118.82762069 189.96630859 137.13037109 C193.57555521 133.61814723 196.87827365 129.9471305 200.09130859 126.06787109 C208.05067454 116.58514296 216.4232083 107.59097576 225.15380859 98.81787109 C226.13353638 97.83113403 226.13353638 97.83113403 227.13305664 96.82446289 C231.58059618 92.39148525 236.18701136 88.20236284 240.96630859 84.13037109 C241.59899658 83.590979 242.23168457 83.05158691 242.88354492 82.49584961 C283.52806023 48.12187663 329.75469157 21.2265189 378.96630859 1.13037109 C380.28924927 0.57373779 380.28924927 0.57373779 381.63891602 0.00585938 C384.48480343 -1.06466955 386.8681533 -1.20555998 389.90380859 -1.24462891 C390.90283203 -1.27298828 391.90185547 -1.30134766 392.93115234 -1.33056641 C396.8562215 -0.73448126 398.90963192 0.61983195 401.96630859 3.13037109 C428.05254456 39.81598059 436.57759884 98.26149584 442.96630859 142.13037109 C443.14564941 143.34208984 443.32499023 144.55380859 443.50976562 145.80224609 C448.18236217 178.914112 448.7335469 215.15122586 442.96630859 248.13037109 C442.66031738 249.88220703 442.66031738 249.88220703 442.34814453 251.66943359 C430.13768966 319.20906751 395.1253323 376.81979804 343.96630859 422.13037109 C343.38413574 422.65195801 342.80196289 423.17354492 342.20214844 423.7109375 C332.84998832 432.07839529 323.1279451 439.77219663 312.96630859 447.13037109 C311.9734082 447.85474365 311.9734082 447.85474365 310.96044922 448.59375 C279.21867223 471.69059696 244.69973486 491.18769948 208.52880859 506.44287109 C207.43391113 506.91748779 206.33901367 507.39210449 205.2109375 507.88110352 C195.7559582 511.74865343 187.70076168 512.76927865 178.109375 508.84619141 C177.34028809 508.5068457 176.57120117 508.1675 175.77880859 507.81787109 C174.93495605 507.46176758 174.09110352 507.10566406 173.22167969 506.73876953 C170.45863924 505.56028825 167.71213893 504.34836772 164.96630859 503.13037109 C163.53085693 502.50412842 163.53085693 502.50412842 162.06640625 501.86523438 C147.26139325 495.38605389 132.99421261 488.14846261 118.96630859 480.13037109 C118.04043945 479.6015332 117.11457031 479.07269531 116.16064453 478.52783203 C87.00139877 461.77763317 59.1740354 442.53342235 34.56005859 419.54052734 C32.40138065 417.53464739 30.21036879 415.60124196 27.96630859 413.69287109 C19.68009275 406.49649157 12.03901356 398.51114623 4.96630859 390.13037109 C4.17095703 389.22416016 3.37560547 388.31794922 2.55615234 387.38427734 C-10.43671365 372.4923439 -21.29141767 356.30146777 -31.03369141 339.13037109 C-31.47841797 338.35081055 -31.92314453 337.57125 -32.38134766 336.76806641 C-56.59793652 293.88301762 -65.75463196 245.07417273 -65.40869141 196.25537109 C-65.4040387 195.07526459 -65.39938599 193.89515808 -65.39459229 192.67929077 C-65.31446324 175.30640292 -64.78403261 158.31197249 -62.03369141 141.13037109 C-61.83180232 139.79445246 -61.63118503 138.45834118 -61.43164062 137.12207031 C-44.72961646 26.0799678 -44.72961646 26.0799678 -18.55322266 0.72802734 C-12.42881214 -2.05208797 -6.42844652 -1.84275926 0 0 Z " fill="#1FBF65" transform="translate(66.03369140625,0.86962890625)"/>
<path d="M0 0 C0.99902344 -0.02835938 1.99804688 -0.05671875 3.02734375 -0.0859375 C6.9524129 0.51014765 9.00582333 1.86446085 12.0625 4.375 C38.14873597 41.0606095 46.67379025 99.50612474 53.0625 143.375 C53.24184082 144.58671875 53.42118164 145.7984375 53.60595703 147.046875 C58.27855358 180.1587409 58.8297383 216.39585477 53.0625 249.375 C52.75650879 251.12683594 52.75650879 251.12683594 52.44433594 252.9140625 C40.23388107 320.45369642 5.2215237 378.06442695 -45.9375 423.375 C-46.51967285 423.89658691 -47.1018457 424.41817383 -47.70166016 424.95556641 C-57.05382028 433.3230242 -66.7758635 441.01682553 -76.9375 448.375 C-77.93040039 449.09937256 -77.93040039 449.09937256 -78.94335938 449.83837891 C-110.68513637 472.93522587 -145.20407374 492.43232839 -181.375 507.6875 C-182.46989746 508.1621167 -183.56479492 508.6367334 -184.69287109 509.12573242 C-192.7774331 512.4327145 -199.44226496 513.38680182 -208.03759766 511.80419922 C-212.0422014 509.83055464 -212.94477633 507.07175059 -214.42578125 503.08984375 C-214.72590118 502.33922165 -215.02602112 501.58859955 -215.3352356 500.81523132 C-216.32724704 498.32186879 -217.28794413 495.8175558 -218.25 493.3125 C-218.94745515 491.54702622 -219.64745276 489.78255496 -220.34985352 488.01904297 C-221.81920685 484.32656943 -223.27907925 480.63054755 -224.73339844 476.93212891 C-227.82906892 469.09125391 -231.07253197 461.31246555 -234.31869507 453.5329895 C-236.10223425 449.25611273 -237.87651327 444.97539424 -239.65234375 440.6953125 C-240.36697673 438.97426392 -241.0816577 437.25323526 -241.79638672 435.53222656 C-244.99266122 427.83458524 -248.18415296 420.13496085 -251.37600708 412.43548584 C-253.14630894 408.16524272 -254.91692012 403.89512785 -256.6875 399.625 C-257.39583482 397.91666728 -258.10416815 396.20833395 -258.8125 394.5 C-259.163125 393.654375 -259.51375 392.80875 -259.875 391.9375 C-263.06249998 384.25000005 -263.06249998 384.25000005 -264.12503052 381.68742371 C-264.83325959 379.97934363 -265.54149119 378.27126461 -266.24972534 376.56318665 C-268.02217479 372.28848708 -269.79457989 368.01376913 -271.56689453 363.73901367 C-274.73506109 356.09763645 -277.90351227 348.45637806 -281.07366943 340.81582642 C-289.28053422 321.03597184 -297.47100088 301.24944817 -305.64294434 281.45513916 C-313.00533369 263.62256756 -320.38907536 245.79892393 -327.78320312 227.97949219 C-330.29800563 221.91832413 -332.80967529 215.85586315 -335.3203125 209.79296875 C-336.41543202 207.1489761 -337.51063132 204.50501651 -338.605896 201.86108398 C-339.32202545 200.13228662 -340.03805069 198.40344607 -340.75396729 196.67456055 C-344.43339121 187.79047688 -348.12435303 178.9116542 -351.859375 170.05078125 C-352.16639343 169.32181641 -352.47341187 168.59285156 -352.78973389 167.84179688 C-354.22006087 164.44668423 -355.65348063 161.05294262 -357.09277344 157.66162109 C-357.83575684 155.90132568 -357.83575684 155.90132568 -358.59375 154.10546875 C-359.02494141 153.08864014 -359.45613281 152.07181152 -359.90039062 151.02416992 C-361.86777777 145.99871843 -363.26255748 140.71853882 -361.18359375 135.47265625 C-359.26339868 131.91088264 -357.33835181 129.51285431 -353.9375 127.375 C-349.25687281 126.0456382 -344.36991207 125.78045551 -339.75 127.4375 C-329.33302033 133.96303137 -324.5025292 154.79376148 -320.0625 165.6875 C-319.22390233 167.73331693 -318.38469871 169.77888557 -317.54492188 171.82421875 C-315.83175984 175.99743445 -314.12075153 180.171523 -312.41113281 184.34619141 C-309.12178076 192.37131009 -305.79711631 200.38168372 -302.46942139 208.39096069 C-300.72800693 212.58289044 -298.98884789 216.77575508 -297.25 220.96875 C-296.90109711 221.8100798 -296.55219421 222.65140961 -296.19271851 223.51823425 C-291.93047393 233.79948156 -287.684429 244.08741935 -283.4375 254.375 C-275.32115609 274.03492175 -267.18143242 293.68505737 -259.03027344 313.33056641 C-255.14255158 322.70094381 -251.25778154 332.07254558 -247.37243652 341.44390869 C-246.30820459 344.01079023 -245.24395367 346.5776639 -244.1796875 349.14453125 C-243.82865967 349.99116333 -243.47763184 350.83779541 -243.1159668 351.71008301 C-241.01170101 356.78503429 -238.90678465 361.85971518 -236.80133057 366.93417358 C-228.20132425 387.66156203 -219.61704891 408.39535044 -211.05908203 429.14013672 C-207.07555857 438.79387216 -203.08046882 448.44257649 -199.0625 458.08203125 C-198.27664686 459.96938195 -197.49083878 461.85675142 -196.70507812 463.74414062 C-195.23321788 467.27942666 -193.75739137 470.81301991 -192.27929688 474.34570312 C-191.61311801 475.94524452 -190.94709378 477.54485034 -190.28125 479.14453125 C-189.98524902 479.8487471 -189.68924805 480.55296295 -189.38427734 481.27851868 C-187.326206 486.23698044 -185.57708132 491.26356901 -183.9375 496.375 C-183.2775 496.375 -182.6175 496.375 -181.9375 496.375 C-181.38255859 494.63863281 -181.38255859 494.63863281 -180.81640625 492.8671875 C-178.40768389 485.65643401 -175.62953697 478.58380113 -172.875 471.5 C-172.57371185 470.72412537 -172.27242371 469.94825073 -171.96200562 469.14886475 C-165.11982163 451.56648489 -157.80805021 434.18803577 -150.47906494 416.80450439 C-146.05850137 406.30804755 -141.71561643 395.77970871 -137.375 385.25 C-135.78270459 381.38926001 -134.19016475 377.52862085 -132.59765625 373.66796875 C-132.20752853 372.72203354 -131.81740082 371.77609833 -131.41545105 370.80149841 C-127.39294184 361.05026703 -123.35433007 351.30573577 -119.3125 341.5625 C-118.79074692 340.30459152 -118.79074692 340.30459152 -118.25845337 339.02127075 C-115.47145752 332.30207007 -112.68364026 325.58321031 -109.89575195 318.86437988 C-107.45093555 312.9722521 -105.00646449 307.0799812 -102.5625 301.1875 C-102.21491638 300.34947845 -101.86733276 299.51145691 -101.50921631 298.64804077 C-95.8058337 284.89564373 -90.11884564 271.13651363 -84.4375 257.375 C-76.32105464 237.71512001 -68.18143251 218.06494284 -60.03027344 198.41943359 C-57.91790357 193.3280964 -55.80647836 188.2363678 -53.6953125 183.14453125 C-53.34346893 182.29595047 -52.99162537 181.44736969 -52.62911987 180.57307434 C-50.86829886 176.32621197 -49.10763666 172.07928382 -47.34716797 167.83227539 C-44.01383217 159.79131332 -40.67896139 151.75099649 -37.33947754 143.71258545 C-35.75370772 139.89527776 -34.16869345 136.07765657 -32.58374023 132.26000977 C-31.82451666 130.43188996 -31.06491873 128.60392558 -30.30493164 126.77612305 C-29.25443711 124.24957294 -28.20520752 121.72250103 -27.15625 119.1953125 C-26.68723267 118.06870712 -26.68723267 118.06870712 -26.20874023 116.91934204 C-23.66786436 110.79174189 -22.13168978 106.01442227 -22.9375 99.375 C-24.74077606 95.62973434 -26.26467277 93.83374584 -29.6875 91.5 C-35.03493103 89.64896618 -38.9562298 89.44263755 -44.125 91.875 C-51.39711034 98.33909808 -54.32701564 107.78486104 -57.80822754 116.61325073 C-59.44991959 120.7738176 -61.1188449 124.92346461 -62.78515625 129.07421875 C-63.30110855 130.36178825 -63.30110855 130.36178825 -63.82748413 131.67536926 C-67.34441509 140.43161555 -71.00557191 149.1246471 -74.6875 157.8125 C-80.60920375 171.80577197 -86.4565193 185.82814932 -92.25 199.875 C-92.64616516 200.83545227 -93.04233032 201.79590454 -93.45050049 202.78546143 C-95.46961714 207.6813409 -97.48774958 212.5776253 -99.50537109 217.47412109 C-103.519144 227.2140892 -107.54090961 236.95075776 -111.5625 246.6875 C-111.95267303 247.6322821 -112.34284607 248.57706421 -112.74484253 249.55047607 C-118.59037776 263.70461172 -124.44667039 277.85426292 -130.3125 292 C-130.66580383 292.8520401 -131.01910767 293.7040802 -131.38311768 294.5819397 C-135.22644736 303.84968993 -139.07424833 313.11553281 -142.9375 322.375 C-143.2675 322.375 -143.5975 322.375 -143.9375 322.375 C-143.95937378 321.03429443 -143.95937378 321.03429443 -143.98168945 319.66650391 C-144.87891694 270.12559684 -152.38771401 222.58267953 -175.9375 178.375 C-176.31632324 177.65602539 -176.69514648 176.93705078 -177.08544922 176.19628906 C-182.34225524 166.26844156 -188.08511354 156.88982234 -194.58984375 147.73046875 C-196.51316186 145.02072045 -198.2753352 142.25498851 -199.9375 139.375 C-199.24785156 138.56417969 -198.55820312 137.75335938 -197.84765625 136.91796875 C-196.89838662 135.79952235 -195.94917085 134.68103023 -195 133.5625 C-194.55076172 133.03462891 -194.10152344 132.50675781 -193.63867188 131.96289062 C-191.37676089 129.2953956 -189.1338898 126.62195781 -186.95678711 123.88427734 C-181.62426314 117.20710278 -175.94225835 111.09735255 -169.87133789 105.10302734 C-168.36734161 103.61743532 -166.87165095 102.12384795 -165.37695312 100.62890625 C-160.0665115 95.33740058 -154.6699516 90.20778665 -148.9375 85.375 C-148.30948486 84.8402002 -147.68146973 84.30540039 -147.03442383 83.75439453 C-106.41090386 49.35731206 -60.14465133 22.46932419 -10.9375 2.375 C-9.61455933 1.8183667 -9.61455933 1.8183667 -8.26489258 1.25048828 C-5.41900516 0.17995935 -3.03565529 0.03906892 0 0 Z " fill="#00884A" transform="translate(455.9375,-0.375)"/>
<path d="M0 0 C3 1 3 1 4.59960938 4.1472168 C5.19234551 5.57656094 5.77273323 7.01105998 6.34375 8.44921875 C6.66497833 9.23229401 6.98620667 10.01536926 7.31716919 10.82217407 C8.38832601 13.43990902 9.44391709 16.0636515 10.5 18.6875 C11.2532489 20.5352168 12.00766491 22.38245819 12.76318359 24.22924805 C14.36233381 28.14141226 15.95598007 32.0557549 17.54589844 35.97167969 C21.13527792 44.80221692 24.783516 53.60838626 28.4281311 62.41622925 C29.62324912 65.30826309 30.81449071 68.20186494 32.00463867 71.09594727 C35.81203246 80.34682606 39.65911663 89.57699489 43.60546875 98.76953125 C44.67005908 101.26457929 45.73359133 103.76007567 46.79681396 106.25570679 C47.78967482 108.57175566 48.79906154 110.88011591 49.80908203 113.1887207 C50.40091926 114.57597054 50.9919529 115.96356359 51.58203125 117.3515625 C52.35897339 119.14327881 52.35897339 119.14327881 53.15161133 120.97119141 C54 124 54 124 53.3112793 126.25537109 C51.44509167 128.73829359 49.19387922 130.80612078 47 133 C44.92017736 139.23946793 46.15165581 144.44236559 48.55078125 150.3671875 C48.82046219 151.05811493 49.09014313 151.74904236 49.36799622 152.46090698 C52.19002582 159.62855432 55.18277076 166.72764498 58.20285034 173.81362915 C59.96122912 177.94125507 61.70703628 182.07419455 63.453125 186.20703125 C63.82163071 187.07891586 64.19013641 187.95080048 64.56980896 188.84910583 C68.9158504 199.1467241 73.17795849 209.47887289 77.4375 219.8125 C78.24502979 221.77099858 79.05256561 223.72949466 79.86010742 225.68798828 C81.06680345 228.61466539 82.27345974 231.54135881 83.47990417 234.46813965 C87.47238498 244.15133084 91.48503573 253.82611478 95.5 263.5 C101.51444675 277.99405021 107.51202883 292.49499265 113.5 307 C121.61634391 326.65992175 129.75606758 346.31005737 137.90722656 365.95556641 C141.79494842 375.32594381 145.67971846 384.69754558 149.56506348 394.06890869 C150.62929541 396.63579023 151.69354633 399.2026639 152.7578125 401.76953125 C153.10884033 402.61616333 153.45986816 403.46279541 153.8215332 404.33508301 C156.27344334 410.24846361 158.72637977 416.16141786 161.1796875 422.07421875 C164.33198866 429.67170796 167.48176783 437.27023894 170.62985229 444.86947632 C173.03750434 450.6804057 175.44927602 456.48961288 177.86264038 462.298172 C179.61051791 466.50685961 181.35572908 470.71664968 183.10040283 474.92666626 C183.94138041 476.95444793 184.78343915 478.98178159 185.62664795 481.00863647 C186.80348028 483.837897 187.97637852 486.66875934 189.1484375 489.5 C189.49455078 490.32949661 189.84066406 491.15899323 190.19726562 492.0136261 C192.36881284 497.27352969 194.27254945 502.57807049 196 508 C189.61318729 505.98254597 183.52844504 503.59684616 177.4375 500.8125 C176.56617432 500.41667725 175.69484863 500.02085449 174.79711914 499.61303711 C167.45669911 496.25502129 160.20930172 492.7397697 153.03369141 489.04345703 C150.92827475 487.96319884 148.81396463 486.90170609 146.69921875 485.83984375 C112.3837903 468.40548204 79.98065422 445.7491217 51.76953125 419.55078125 C49.54772682 417.5044649 47.29966262 415.51935577 45 413.5625 C36.71378416 406.36612048 29.07270497 398.38077513 22 390 C21.20464844 389.09378906 20.40929687 388.18757813 19.58984375 387.25390625 C6.59697776 372.36197281 -4.25772626 356.17109668 -14 339 C-14.44472656 338.22043945 -14.88945313 337.44087891 -15.34765625 336.63769531 C-39.56424511 293.75264653 -48.72094055 244.94380164 -48.375 196.125 C-48.37034729 194.94489349 -48.36569458 193.76478699 -48.36090088 192.54891968 C-48.28077183 175.17603183 -47.7503412 158.1816014 -45 141 C-44.79811091 139.66408136 -44.59749362 138.32797009 -44.39794922 136.99169922 C-37.86097268 93.53112152 -27.0208362 48.97458516 -7.5625 9.375 C-7.25699219 8.74835449 -6.95148437 8.12170898 -6.63671875 7.47607422 C-4.92373236 4.17232225 -3.33368313 1.76294178 0 0 Z " fill="#53E25F" transform="translate(49,1)"/>
<path d="M0 0 C1.06863281 0.01804688 2.13726562 0.03609375 3.23828125 0.0546875 C4.04652344 0.07789062 4.85476563 0.10109375 5.6875 0.125 C3.65795209 6.50683857 1.3100431 12.69301262 -1.26953125 18.87109375 C-1.83942024 20.24713272 -1.83942024 20.24713272 -2.42082214 21.65097046 C-3.65238787 24.62280332 -4.88836741 27.59277233 -6.125 30.5625 C-7.84081117 34.6897026 -9.55536005 38.81742853 -11.26953125 42.9453125 C-11.69710724 43.97406998 -12.12468323 45.00282745 -12.56521606 46.0627594 C-15.27273182 52.5868242 -17.939221 59.12603453 -20.57421875 65.6796875 C-21.52250328 68.02705854 -22.47144724 70.37416209 -23.42050171 72.72122192 C-24.01326449 74.19401304 -24.60218107 75.66835823 -25.18716431 77.14425659 C-25.990104 79.1692333 -26.80601465 81.18850263 -27.625 83.20703125 C-28.29982422 84.89662964 -28.29982422 84.89662964 -28.98828125 86.62036133 C-30.3125 89.125 -30.3125 89.125 -33.3125 90.125 C-34.570625 90.063125 -35.82875 90.00125 -37.125 89.9375 C-41.6092874 89.91286106 -43.9038611 91.09509875 -47.3125 94.125 C-52.2408799 100.95285966 -55.11589542 108.58446448 -58.18322754 116.36325073 C-59.82491959 120.5238176 -61.4938449 124.67346461 -63.16015625 128.82421875 C-63.50412445 129.68259842 -63.84809265 130.54097809 -64.20248413 131.42536926 C-67.71941509 140.18161555 -71.38057191 148.8746471 -75.0625 157.5625 C-80.98420375 171.55577197 -86.8315193 185.57814932 -92.625 199.625 C-93.02116516 200.58545227 -93.41733032 201.54590454 -93.82550049 202.53546143 C-95.84461714 207.4313409 -97.86274958 212.3276253 -99.88037109 217.22412109 C-103.894144 226.9640892 -107.91590961 236.70075776 -111.9375 246.4375 C-112.32767303 247.3822821 -112.71784607 248.32706421 -113.11984253 249.30047607 C-118.96537776 263.45461172 -124.82167039 277.60426292 -130.6875 291.75 C-131.04080383 292.6020401 -131.39410767 293.4540802 -131.75811768 294.3319397 C-135.60144736 303.59968993 -139.44924833 312.86553281 -143.3125 322.125 C-143.6425 322.125 -143.9725 322.125 -144.3125 322.125 C-144.32708252 321.23119629 -144.34166504 320.33739258 -144.35668945 319.41650391 C-145.25391694 269.87559684 -152.76271401 222.33267953 -176.3125 178.125 C-176.69132324 177.40602539 -177.07014648 176.68705078 -177.46044922 175.94628906 C-182.71725524 166.01844156 -188.46011354 156.63982234 -194.96484375 147.48046875 C-196.88816186 144.77072045 -198.6503352 142.00498851 -200.3125 139.125 C-199.27802734 137.90876953 -199.27802734 137.90876953 -198.22265625 136.66796875 C-197.27338662 135.54952235 -196.32417085 134.43103023 -195.375 133.3125 C-194.92576172 132.78462891 -194.47652344 132.25675781 -194.01367188 131.71289062 C-191.75176089 129.0453956 -189.5088898 126.37195781 -187.33178711 123.63427734 C-181.99926314 116.95710278 -176.31725835 110.84735255 -170.24633789 104.85302734 C-168.74234161 103.36743532 -167.24665095 101.87384795 -165.75195312 100.37890625 C-160.4415115 95.08740058 -155.0449516 89.95778665 -149.3125 85.125 C-148.68448486 84.5902002 -148.05646973 84.05540039 -147.40942383 83.50439453 C-106.78590386 49.10731206 -60.51965133 22.21932419 -11.3125 2.125 C-10.43489014 1.75101074 -9.55728027 1.37702148 -8.65307617 0.99169922 C-5.66875005 -0.11337617 -3.17072569 -0.06968628 0 0 Z " fill="#00AB5D" transform="translate(456.3125,-0.12499999999999999)"/>
<path d="M0 0 C0.74121094 0.06703125 1.48242188 0.1340625 2.24609375 0.203125 C6.37456713 1.17780674 8.93187277 2.78746845 11.27001953 6.35620117 C11.78161621 7.42845947 12.29321289 8.50071777 12.8203125 9.60546875 C13.11100616 10.21247116 13.40169983 10.81947357 13.70120239 11.44487 C17.95869029 20.49715584 21.66319024 29.80212316 25.4375 39.0625 C26.27609767 41.10831693 27.11530129 43.15388557 27.95507812 45.19921875 C29.66824016 49.37243445 31.37924847 53.546523 33.08886719 57.72119141 C36.37821924 65.74631009 39.70288369 73.75668372 43.03057861 81.76596069 C44.77199307 85.95789044 46.51115211 90.15075508 48.25 94.34375 C48.59890289 95.1850798 48.94780579 96.02640961 49.30728149 96.89323425 C53.56952607 107.17448156 57.815571 117.46241935 62.0625 127.75 C70.17884391 147.40992175 78.31856758 167.06005737 86.46972656 186.70556641 C90.35744842 196.07594381 94.24221846 205.44754558 98.12756348 214.81890869 C99.19179541 217.38579023 100.25604633 219.9526639 101.3203125 222.51953125 C101.67134033 223.36616333 102.02236816 224.21279541 102.3840332 225.08508301 C104.48829899 230.16003429 106.59321535 235.23471518 108.69866943 240.30917358 C116.09967804 258.1467861 123.49085597 275.98838351 130.86062622 293.83892822 C137.19676385 309.18575728 143.53365773 324.5322796 149.88623047 339.87231445 C150.61890202 341.64200053 151.35117241 343.41185275 152.08300781 345.18188477 C153.09457693 347.62823528 154.10741764 350.07405311 155.12109375 352.51953125 C155.42965302 353.2646698 155.73821228 354.00980835 156.05612183 354.77752686 C157.65477038 358.62260574 159.30339228 362.4350378 161.03515625 366.22265625 C162.5625 369.75 162.5625 369.75 162.5625 372.375 C160.65963906 376.89429473 158.50070949 381.667923 154.5625 384.75 C151.54306021 385.75647993 149.40982955 385.91564779 146.25 385.9375 C145.32574219 385.95167969 144.40148437 385.96585938 143.44921875 385.98046875 C140.01849952 385.7065683 137.691856 385.23444455 134.5625 383.75 C133.07308961 381.2494693 132.07436794 379.15389688 131.07421875 376.46484375 C130.77409882 375.71422165 130.47397888 374.96359955 130.1647644 374.19023132 C129.17275296 371.69686879 128.21205587 369.1925558 127.25 366.6875 C126.55254485 364.92202622 125.85254724 363.15755496 125.15014648 361.39404297 C123.68079315 357.70156943 122.22092075 354.00554755 120.76660156 350.30712891 C117.67093108 342.46625391 114.42746803 334.68746555 111.18130493 326.9079895 C109.39776575 322.63111273 107.62348673 318.35039424 105.84765625 314.0703125 C105.13302327 312.34926392 104.4183423 310.62823526 103.70361328 308.90722656 C100.50733878 301.20958524 97.31584704 293.50996085 94.12399292 285.81048584 C92.35369106 281.54024272 90.58307988 277.27012785 88.8125 273 C88.10416518 271.29166728 87.39583185 269.58333395 86.6875 267.875 C86.336875 267.029375 85.98625 266.18375 85.625 265.3125 C82.43750002 257.62500005 82.43750002 257.62500005 81.37496948 255.06242371 C80.66674041 253.35434363 79.95850881 251.64626461 79.25027466 249.93818665 C77.47782521 245.66348708 75.70542011 241.38876913 73.93310547 237.11401367 C70.76493891 229.47263645 67.59648773 221.83137806 64.42633057 214.19082642 C56.21946578 194.41097184 48.02899912 174.62444817 39.85705566 154.83013916 C32.49466631 136.99756756 25.11092464 119.17392393 17.71679688 101.35449219 C15.20199437 95.29332413 12.69032471 89.23086315 10.1796875 83.16796875 C9.08456798 80.5239761 7.98936868 77.88001651 6.894104 75.23608398 C6.17797455 73.50728662 5.46194931 71.77844607 4.74603271 70.04956055 C1.06660879 61.16547688 -2.62435303 52.2866542 -6.359375 43.42578125 C-6.66639343 42.69681641 -6.97341187 41.96785156 -7.28973389 41.21679688 C-8.72006087 37.82168423 -10.15348063 34.42794262 -11.59277344 31.03662109 C-12.0880957 29.86309082 -12.58341797 28.68956055 -13.09375 27.48046875 C-13.52494141 26.46364014 -13.95613281 25.44681152 -14.40039062 24.39916992 C-16.36777777 19.37371843 -17.76255748 14.09353882 -15.68359375 8.84765625 C-13.43905552 4.68425789 -11.17108312 1.61688682 -6.58984375 0.1640625 C-4.25181295 -0.28572201 -2.3649686 -0.24592394 0 0 Z " fill="#00AB5E" transform="translate(110.4375,126.25)"/>
<path d="M0 0 C4.32900774 2.23432658 6.95545792 4.83728955 9.06640625 9.3125 C10.31423641 18.57788458 6.22668146 26.35476923 2.69140625 34.6875 C2.01132419 36.32307964 1.33264645 37.95924382 0.65527344 39.59594727 C-1.15391916 43.95596609 -2.98249134 48.30758677 -4.81604004 52.65740967 C-6.64312548 56.99820944 -8.45558774 61.34510251 -10.26953125 65.69140625 C-12.4933801 71.01585929 -14.71996372 76.33913718 -16.9543457 81.65917969 C-22.51503613 94.89946771 -28.02076285 108.16169767 -33.49609375 121.4375 C-33.89193665 122.39714661 -34.28777954 123.35679321 -34.69561768 124.34552002 C-36.28235985 128.19231232 -37.86908979 132.03910966 -39.45562744 135.88598633 C-43.47816539 145.63721284 -47.51669451 155.38178584 -51.55859375 165.125 C-51.90576447 165.96194397 -52.25293518 166.79888794 -52.61062622 167.66119385 C-54.35383473 171.86356335 -56.09726228 176.06584192 -57.84082031 180.26806641 C-59.95319018 185.3594036 -62.06461982 190.45113036 -64.17578125 195.54296875 C-64.52680908 196.38960083 -64.87783691 197.23623291 -65.23950195 198.10852051 C-66.30421444 200.67650736 -67.36890789 203.24450211 -68.43359375 205.8125 C-76.24005901 224.64151525 -76.24005901 224.64151525 -80.06976318 233.87167358 C-88.2732828 253.64346577 -96.4608941 273.42172698 -104.62896729 293.20819092 C-111.15040686 309.00532377 -117.68847222 324.79549753 -124.24023438 340.58007812 C-128.48871375 350.81710834 -132.71906257 361.06144578 -136.93359375 371.3125 C-138.04958767 367.96451825 -137.85889407 367.38046884 -136.74609375 364.19140625 C-136.32142822 362.93420776 -136.32142822 362.93420776 -135.88818359 361.65161133 C-135.57316895 360.73532959 -135.2581543 359.81904785 -134.93359375 358.875 C-127.65133474 336.78719822 -122.8473278 314.21220515 -118.93359375 291.3125 C-118.76045654 290.34666992 -118.58731934 289.38083984 -118.40893555 288.38574219 C-117.02150587 280.47601022 -116.14635924 272.55326857 -115.37109375 264.5625 C-115.23359378 263.21715879 -115.09565025 261.87186284 -114.95727539 260.52661133 C-114.13798086 252.62131982 -114.13798086 252.62131982 -113.87109375 244.68359375 C-113.87109375 232.76502904 -109.29286801 223.07156527 -104.62939453 212.27001953 C-102.73639095 207.87438688 -100.90966717 203.45207737 -99.0859375 199.02734375 C-98.39587105 197.35406973 -97.70576616 195.68081156 -97.015625 194.00756836 C-96.6645166 193.15629364 -96.3134082 192.30501892 -95.95166016 191.427948 C-94.11836765 186.99057035 -92.27393367 182.55783381 -90.4296875 178.125 C-86.44270218 168.53963043 -82.46446639 158.95065784 -78.48959351 149.36026001 C-76.71868694 145.08767859 -74.94723748 140.81532229 -73.17578125 136.54296875 C-72.8247081 135.69623093 -72.47363495 134.8494931 -72.11192322 133.97709656 C-70.00773046 128.90230008 -67.90287783 123.82777786 -65.79748535 118.753479 C-64.05096559 114.54407832 -62.30473933 110.33455591 -60.55859375 106.125 C-60.03948425 104.87363251 -60.03948425 104.87363251 -59.5098877 103.59698486 C-54.95158844 92.60750036 -50.40389808 81.61369021 -45.86750793 70.61514282 C-43.83677189 65.69187012 -41.80437609 60.76930013 -39.76733398 55.84863281 C-38.9802958 53.94726984 -38.19326767 52.04590271 -37.40625 50.14453125 C-36.83326424 48.76048599 -36.83326424 48.76048599 -36.248703 47.34848022 C-34.14087526 42.25136795 -32.04920437 37.14817088 -29.97769165 32.03619385 C-28.80324549 29.14211311 -27.61899348 26.25211171 -26.43273926 23.362854 C-25.90161539 22.06204385 -25.37513679 20.75932492 -24.85388184 19.45452881 C-18.74278527 4.16465216 -18.74278527 4.16465216 -11.9909668 0.16040039 C-8.04411739 -1.46620552 -3.97602575 -1.41369804 0 0 Z " fill="#53E25F" transform="translate(424.93359375,89.6875)"/>
</svg>
